<svg version="1.1" xmlns="http://www.w3.org/2000/svg" xmlns:xlink="http://www.w3.org/1999/xlink" viewBox="0 0 226 226"><g fill="none" fill-rule="nonzero" stroke="none" stroke-width="1" stroke-linecap="butt" stroke-linejoin="miter" stroke-miterlimit="10" stroke-dasharray="" stroke-dashoffset="0" font-family="none" font-weight="none" font-size="none" text-anchor="none" style="mix-blend-mode: normal"><path d="M0,226v-226h226v226z" fill="none"></path><g><path d="M188.33333,160.08333h-150.66667l-4.70833,-80.04167l37.66667,28.25l42.375,-42.375l42.375,42.375l37.66667,-28.25z" fill="#ffc107"></path><path d="M188.33333,178.91667h-150.66667v-18.83333h150.66667zM113,65.91667c5.17917,0 9.41667,-4.2375 9.41667,-9.41667c0,-5.17917 -4.2375,-9.41667 -9.41667,-9.41667c-5.17917,0 -9.41667,4.2375 -9.41667,9.41667c0,5.17917 4.2375,9.41667 9.41667,9.41667zM197.75,80.04167c5.17917,0 9.41667,-4.2375 9.41667,-9.41667c0,-5.17917 -4.2375,-9.41667 -9.41667,-9.41667c-5.17917,0 -9.41667,4.2375 -9.41667,9.41667c0,5.17917 4.2375,9.41667 9.41667,9.41667zM28.25,80.04167c5.17917,0 9.41667,-4.2375 9.41667,-9.41667c0,-5.17917 -4.2375,-9.41667 -9.41667,-9.41667c-5.17917,0 -9.41667,4.2375 -9.41667,9.41667c0,5.17917 4.2375,9.41667 9.41667,9.41667z" fill="#ff9800"></path></g></g></svg>